<svg xmlns="http://www.w3.org/2000/svg" viewBox="0 0 120 120">
  <circle cx="60" cy="60" r="14" fill="none" stroke="#ffffff" stroke-width="1.4" opacity="0.8"/>
  <line x1="60" y1="60" x2="116.00" y2="60.00" stroke="#ffffff" stroke-width="3.2" stroke-linecap="round" opacity="0.9"/><line x1="60" y1="60" x2="95.11" y2="74.54" stroke="#ffffff" stroke-width="1.8" stroke-linecap="round" opacity="0.45"/><line x1="60" y1="60" x2="99.60" y2="99.60" stroke="#ffffff" stroke-width="3.2" stroke-linecap="round" opacity="0.9"/><line x1="60" y1="60" x2="74.54" y2="95.11" stroke="#ffffff" stroke-width="1.8" stroke-linecap="round" opacity="0.45"/><line x1="60" y1="60" x2="60.00" y2="116.00" stroke="#ffffff" stroke-width="3.2" stroke-linecap="round" opacity="0.9"/><line x1="60" y1="60" x2="45.46" y2="95.11" stroke="#ffffff" stroke-width="1.8" stroke-linecap="round" opacity="0.45"/><line x1="60" y1="60" x2="20.40" y2="99.60" stroke="#ffffff" stroke-width="3.2" stroke-linecap="round" opacity="0.9"/><line x1="60" y1="60" x2="24.89" y2="74.54" stroke="#ffffff" stroke-width="1.8" stroke-linecap="round" opacity="0.45"/><line x1="60" y1="60" x2="4.00" y2="60.00" stroke="#ffffff" stroke-width="3.2" stroke-linecap="round" opacity="0.9"/><line x1="60" y1="60" x2="24.89" y2="45.46" stroke="#ffffff" stroke-width="1.8" stroke-linecap="round" opacity="0.45"/><line x1="60" y1="60" x2="20.40" y2="20.40" stroke="#ffffff" stroke-width="3.2" stroke-linecap="round" opacity="0.9"/><line x1="60" y1="60" x2="45.46" y2="24.89" stroke="#ffffff" stroke-width="1.8" stroke-linecap="round" opacity="0.45"/><line x1="60" y1="60" x2="60.00" y2="4.00" stroke="#ffffff" stroke-width="3.2" stroke-linecap="round" opacity="0.9"/><line x1="60" y1="60" x2="74.54" y2="24.89" stroke="#ffffff" stroke-width="1.8" stroke-linecap="round" opacity="0.45"/><line x1="60" y1="60" x2="99.60" y2="20.40" stroke="#ffffff" stroke-width="3.2" stroke-linecap="round" opacity="0.9"/><line x1="60" y1="60" x2="95.11" y2="45.46" stroke="#ffffff" stroke-width="1.8" stroke-linecap="round" opacity="0.45"/>
</svg>